<?xml version='1.0' encoding='iso-8859-1'?>
<svg fill="#ffffff" height="800px" width="800px" version="1.1" xmlns="http://www.w3.org/2000/svg" viewBox="0 0 463 463" xmlns:xlink="http://www.w3.org/1999/xlink" enable-background="new 0 0 463 463">
  <g>
    <path d="m431.5,56h-400c-17.369,0-31.5,14.131-31.5,31.5v288c0,17.369 14.131,31.5 31.5,31.5h400c17.369,0 31.5-14.131 31.5-31.5v-288c0-17.369-14.131-31.5-31.5-31.5zm16.5,31.5v80.5h-161v-8.5c0-2.997-0.57-5.862-1.597-8.5h138.097c4.142,0 7.5-3.358 7.5-7.5v-72.5h0.5c9.098,0 16.5,7.402 16.5,16.5zm-401,207.5h369v65h-369v-65zm369-15h-369v-65h129.521c3.675,27.067 26.921,48 54.979,48s51.305-20.933 54.979-48h129.521v65zm-369-209h161v65h-8.5-152.5v-65zm216.5,65h-8.5v-65h161v65h-152.5zm-23.5,0h-17v-65h17v65zm23.5,15c4.687,0 8.5,3.813 8.5,8.5v47.971c0,0.01-0.001,0.019-0.001,0.029 0,0.007 0.001,0.013 0.001,0.019-0.011,22.323-18.175,40.481-40.5,40.481-22.319,0-40.478-18.148-40.499-40.461 0-0.013 0.002-0.026 0.002-0.039 0-0.02-0.003-0.038-0.003-0.058v-47.942c0-4.687 3.813-8.5 8.5-8.5h64zm-232-80h0.5v72.5c0,4.142 3.358,7.5 7.5,7.5h138.097c-1.027,2.638-1.597,5.503-1.597,8.5v8.5h-161v-80.5c0-9.098 7.402-16.5 16.5-16.5zm400,321h-400c-9.098,0-16.5-7.402-16.5-16.5v-192.5h161v17h-136.5c-4.142,0-7.5,3.358-7.5,7.5v160c0,4.142 3.358,7.5 7.5,7.5h384c4.142,0 7.5-3.358 7.5-7.5v-160c0-4.142-3.358-7.5-7.5-7.5h-136.5v-17h161v192.5c0,9.098-7.402,16.5-16.5,16.5z"/>
    <path d="m224,213.766v9.734c0,4.142 3.358,7.5 7.5,7.5s7.5-3.358 7.5-7.5v-9.734c9.29-3.138 16-11.93 16-22.266 0-12.958-10.542-23.5-23.5-23.5s-23.5,10.542-23.5,23.5c0,10.336 6.71,19.128 16,22.266zm7.5-30.766c4.687,0 8.5,3.813 8.5,8.5s-3.813,8.5-8.5,8.5-8.5-3.813-8.5-8.5 3.813-8.5 8.5-8.5z"/>
    <path d="M79.5,89C71.505,89,65,95.505,65,103.5S71.505,118,79.5,118S94,111.495,94,103.5S87.495,89,79.5,89z"/>
    <path d="M79.5,233c-7.995,0-14.5,6.505-14.5,14.5S71.505,262,79.5,262S94,255.495,94,247.5S87.495,233,79.5,233z"/>
    <path d="M79.5,313c-7.995,0-14.5,6.505-14.5,14.5S71.505,342,79.5,342S94,335.495,94,327.5S87.495,313,79.5,313z"/>
    <path d="M383.5,89c-7.995,0-14.5,6.505-14.5,14.5s6.505,14.5,14.5,14.5s14.5-6.505,14.5-14.5S391.495,89,383.5,89z"/>
    <path d="m383.5,262c7.995,0 14.5-6.505 14.5-14.5s-6.505-14.5-14.5-14.5-14.5,6.505-14.5,14.5 6.505,14.5 14.5,14.5z"/>
    <path d="m383.5,313c-7.995,0-14.5,6.505-14.5,14.5s6.505,14.5 14.5,14.5 14.5-6.505 14.5-14.5-6.505-14.5-14.5-14.5z"/>
  </g>
</svg>
